<?xml version="1.0" encoding="UTF-8"?>
<svg version="1.1" viewBox="0 0 1600 1600" width="1280" height="1280" xmlns="http://www.w3.org/2000/svg">
<path transform="translate(368,202)" d="m0 0h829l58 1 23 3 17 5 23 11 14 10 12 11 13 14 14 21 8 15 6 16 3 14 2 24v846l-1 61-2 25-4 18-8 19-11 18-14 17-9 9-17 12-16 8-14 5-20 5-21 3-39 2-158 1h-490l-224-1-22-2-18-4-24-10-16-10-14-11-12-11-7-8-11-15-9-16-7-18-4-17-2-18-1-33-1-59v-613l1-197 2-25 4-17 9-20 11-18 9-12 9-10 3-4h2l2-4 8-7 14-11 15-9 14-7 12-4 11-2z" fill="#36C4F7"/>
<path transform="translate(1382,316)" d="m0 0h4l2 7 2 24v846l-1 61-2 25-4 18-8 19-11 18-14 17-9 9-17 12-16 8-14 5-20 5-21 3-39 2-158 1h-490l-224-1-22-2-18-4-24-10-16-10-14-11-12-11-7-8-11-15-9-16-7-18-4-17-2-18-1-33-1-59v-613l1-26 4 2 3 5v3h2l3 9 2 4 4 1 6 7v2l5 1 4 4v2l4 2 11 7 3 2v2l6 1 2 3 10 3 5 4 6 3 2 6v5l10 3 3 2h7l1 2h7l1 1h5l4-1 5 4 6 3 2 5h2v4l12 1 9 2h2v-2l9-2 5-1 4-3 3 3-1 7h2l1 10h2l5 6 2 12 2 1v2h2l1 11h2l1 3v110l1 4v120l-1 115v66l1 72 1 18 2 5 5 2 16 1h136l8-2 1-2 1-48v-363l-1-130-1-15-7-2-98-2-6-1-1-2-3-1-4-6 1-3-5-5-4-5v-2h-2v-2h-2v-2h-3l-5-9-7-14-4-9-3-9-3-20-1-7 5 5 9 8 15 9 8 3v2l11 3 17 4h25l10-2 5-2 10-2v-2l11-6 10-8 6-5 4-5 5-9 5-8 5-9 2-5 4-6 3 1 2 15 1 12 1 8h2l3 8 4 9 2 5 3 12 3 24 4 26 4 21 8 26 3 8 2 5 3 3 7 8 6 11h2l8 17 3 9 3 11 3 4 4 36v4h2l1 3 1 12h1l1 381 2 11 2 5 23 2h92l29-1 14-1 3-1 2-8 1-12 2-271 1-27 1-8h2l2-9 3-7 8-12 5-5 2-3h2v-2h2l1-3 6-5 7-8 10-7 11-6 10-5 17-3h19l15 2 12 3 8 4 8 3 6 3v2l5 2 10 7 9 11 8 10 5 10 6 19 5 25 2 20 1 20 1 43v65l-1 92v35l1 19 3 5 4 2 60 1h60l25-1 7-1v-2h2l1-60 1-84v-66l-1-67-2-42-3-35-5-29-4-18-2-10-6-18-9-20-6-12-5-9-4-4-3-5v-4l-3-1-7-10-15-16-14-13-6-4v-2l-5-1-18-10v-2l-5-1-4-2-8-2-17-5-9-2-1-1-12-2-12-1h-35l-31 3-17 6-8 2-20 7-5 1v2l-8 2v2l-10 4-4 4-5 3h-3v2l-3 1-3 3h-2v2l-13 9-5 4h-2v2l-7 4h-3l-1-7-2-40-1-9-4-5-8-3v-2l-11-1 2-5 2-2 11 1 9-1 1-3 7-1 11-3 6 1 2 1 10-1 10-2 8-4 3-3 9-3 7-6 9-3 6-3 8-1 6-3 2-3 13-2 5-5 4-3 12-4 2-1 2-8h3l5-1-1-4 4-3h4l4-5 9-3 2-5 1-2 7 1 2-6 9 1v-2l4-4 5-1 2-4 2-2 7-2 4-2 2-2 4-1 6-2 10-4 7 1 2-5 7-3 10-1 6-3h7v-2l3-1v2l4-1 1-4 3-2 1 6 8-5 5-1 4-5 5-2 4-3 4-1 5 5 6-1 5-3 7-3 4-1 3 2 8 2 3-2 3 2v2l12-4 4-2v-4h5l2-2h4l2-6 2-2v-7l6-2v2h2v2l5-2v-7l3-1v-2l4-2 3-3 8-4 3-4h2l1-2 6-4 6-10 5-4h4l3 5 6-8 6 2 6 1h5l6-2 3-3v-3h3l1-2 2-2 3-9 3-1 1-5 7-16 5-8 3-10 5-13 2-1 1-3h2l2-4 8-5z" fill="#1563B0"/>
<path transform="translate(788,625)" d="m0 0h27l10 1 6 5 1 2 2 26 1 30 8-4h2v-2l11-8 7-5h2v-2l4-1 1-3h3v-2l9-5h2l1-3 10-3v-2l8-2v-2l25-9 17-5 8-3 31-3h35l12 1 12 2 5 2 19 5 5 2 7 2 8 3v2l5 2 14 8 4 1 4 4 8 7 10 9 8 8 7 8 6 9 2 1 3 7 2 5 3 1 9 16 11 25 7 20 3 17 5 25 3 22 3 42 1 28 1 68v66l-1 96-1 38-1 7h-2v2l-7 2-25 1h-73l-47-1-6-4-2-4-1-19v-35l1-92v-65l-1-43-2-30-3-22-5-20-6-17-7-10-9-11-3-3v-2l-5-2-8-6-2-1v-2l-6-2-15-6-8-3-9-2-11-1h-19l-17 3-16 8-9 6-8 6-6 7h-2l-1 3-3 3h-2v2h-2l-2 4h-2l-2 4-8 12-3 7-3 9h-2l-1 39-2 267-2 18-2 3-3 1-14 1-29 1h-92l-21-2-3-3-3-7-1-7v-306l1-77 1-155 2-3 12-2 58-2z" fill="#FAFBFC"/>
<path transform="translate(1382,316)" d="m0 0h4l2 7 2 24v846h-1l-1-590-1 8-1 22-1 10-1 15v15l-2 50-2 43-1 22-1 39-3 38-1 6v11l-4 47v14l-2 9-1 25-1 13-2 12-2 10-3 23-4 7-2 5-6 1-11-1-2-2v-2l-5-6-3-10h3l-1-5-5 2v-6l-2-1 1-3-3-5-4-5-7-10-12-24v-2l-4-2-13-23-6-7-3-6-4-6-5-10-1-5-4-7-6-12-1-4h-2l-1-4-3-2v-2h-2l-3-4-1-5-4-1-2-3-6-3-10-10-4 2-2 4 1 64v63l-1 117-1 71-2 13-4 3-24 2h-118l-12-1-6-3-2-3-1-5-1-23 1-80v-88l-1-67-2-25-2-16-6-21-8-18-11-16-7-7-15-10-15-7-17-4h-32l-19 3-15 5-14 8-15 13-11 12-10 15-1-2 3-7 8-12 5-5 2-3h2v-2h2l1-3 6-5 7-8 10-7 11-6 10-5 17-3h19l15 2 12 3 8 4 8 3 6 3v2l5 2 10 7 9 11 8 10 5 10 6 19 5 25 2 20 1 20 1 43v65l-1 92v35l1 19 3 5 4 2 60 1h60l25-1 7-1v-2h2l1-60 1-84v-66l-1-67-2-42-3-35-5-29-4-18-2-10-6-18-9-20-6-12-5-9-4-4-3-5v-4l-3-1-7-10-15-16-14-13-6-4v-2l-5-1-18-10v-2l-5-1-4-2-8-2-17-5-9-2-1-1-12-2-12-1h-35l-31 3-17 6-8 2-20 7-5 1v2l-8 2v2l-10 4-4 4-5 3h-3v2l-3 1-3 3h-2v2l-13 9-5 4h-2v2l-7 4h-3l-1-7-2-40-1-9-4-5-8-3v-2l-11-1 2-5 2-2 11 1 9-1 1-3 7-1 11-3 6 1 2 1 10-1 10-2 8-4 3-3 9-3 7-6 9-3 6-3 8-1 6-3 2-3 13-2 5-5 4-3 12-4 2-1 2-8h3l5-1-1-4 4-3h4l4-5 9-3 2-5 1-2 7 1 2-6 9 1v-2l4-4 5-1 2-4 2-2 7-2 4-2 2-2 4-1 6-2 10-4 7 1 2-5 7-3 10-1 6-3h7v-2l3-1v2l4-1 1-4 3-2 1 6 8-5 5-1 4-5 5-2 4-3 4-1 5 5 6-1 5-3 7-3 4-1 3 2 8 2 3-2 3 2v2l12-4 4-2v-4h5l2-2h4l2-6 2-2v-7l6-2v2h2v2l5-2v-7l3-1v-2l4-2 3-3 8-4 3-4h2l1-2 6-4 6-10 5-4h4l3 5 6-8 6 2 6 1h5l6-2 3-3v-3h3l1-2 2-2 3-9 3-1 1-5 7-16 5-8 3-10 5-13 2-1 1-3h2l2-4 8-5z" fill="#28B3EF"/>
<path transform="translate(368,202)" d="m0 0h829l58 1 23 3 17 5 23 11 14 10 12 11 13 14 14 21 5 9-1 2-16-13-6-5-20-11-21-4h-15l-18-2-39-2-7-1h-30l-33 1-2 1h-28l-28 2h-16l-43 1-72 1-25 1-25 5-12 3-7 1v2l-3 2-8 1-1 5h-6l-4 2h-3l-1 4h-9l-4 1-2 5-2 2h-10l-2 5-4 1-11 1v2h-2v2l-7 5-4-1-8 4h-2l-4 4h-6l-2 4-6-2-3 2h-9l-3 3h-5l-4 1-5-1-5 2h-5l-5 3-11 1-4 1v3l-10 4-6-2-10 5-9 1v2l-11-1-4 3-4-1-3 2-5 5h-3l-1 3-16 2-4 2-1 2-5 2-9 3-3 7-7 2h-9v2l-6 1-2-1-4 2-7-1-12 4-19-2-11-4-12-3h-9l-8-1-4 1-6-2-5 1-1 2-11 1h-8l-13 2-7 2-15 3-20 6-12 3-7-1-7 2-1-3-6-1h-8l-10 1h-7l-24 8-9-2-5 1-12-2-8-2-9-3-10-1-3 1-7-1h-16l-10 2-6-2-3 1-10-2-10-1-3-4v-2l-5-2-6-4h-11l-4-6-5-5v-2l-5-1v-2l-3-1v-2l-3 1-1-1v-16l3-17 3-11 7-15 10-17 10-14 11-12 2-3h2l2-4 8-7 14-11 15-9 14-7 12-4 11-2z" fill="#58DBFD"/>
<path transform="translate(195,524)" d="m0 0 4 2 3 5v3h2l3 9 2 4 4 1 6 7v2l5 1 4 4v2l4 2 11 7 3 2v2l6 1 2 3 10 3 5 4 6 3 2 6v5l10 3 3 2h7l1 2h7l1 1h5l4-1 5 4 6 3 2 5h2v4l12 1 9 2h2v-2l9-2 5-1 4-3 3 3-1 7h2l1 10h2l5 6 2 12 2 1v2h2l1 11h2l1 3v110l1 4v120l-1 115v66l1 72 1 18 2 5 5 2 16 1 97 1v1h-99l-17-1-7-1-5 3-5 5-8 4h-3l-2 5-6 5-4 3 1 4-6 3-6 4h-4v2l-7 6-5 3-10 2-9 4-4 1-2-1-6 1-5-2h-16l-2-4-4-2 2-3h2v-5l-13-3-6-5-7-3v-7l-5-5v-7l-5-2v-3l-4-3 1-6-7-2v-2l-4-2-8-2-1-3-7-2-4-5-4-4-5-6-3-2-1 11h-1v-613z" fill="#188BD5"/>
<path transform="translate(398,626)" d="m0 0h160l4 2 1 3 1 12 1 130v363l-1 48-2 3-3 1h-129l-20-1-10-3-2-6-1-8-1-29-1-73v-366l1-66 1-9z" fill="#FAFBFB"/>
<path transform="translate(1387,329)" d="m0 0 2 2 1 16v846h-1l-1-590-1 8-1 22-1 10-1 15v15l-2 50-2 43-1 22-1 39-3 38-1 6v11l-4 47v14l-2 9-1 25-1 13-2 12-2 10-3 23-4 7-2 5-6 1-11-1-2-2v-2l-5-6-3-10h3l-1-5-5 2v-6l-2-1 1-3-3-5-4-5-7-10-12-24v-2l-4-2-13-23-6-7-3-6-4-6-5-10-1-5-4-7-6-12-1-4h-2l-1-4-3-2v-2h-2l-3-4-1-5-4-1-2-3-6-3-10-10-4 2-2 4 1 64v63l-1 117-1 71-2 13-4 3-24 2h-118l-12-1-6-3-2-3-1-5-1-23 1-80v-88l-1-67-2-25-2-16-6-21-8-18-11-16-7-7-15-10-15-7-17-4h-32l-19 3-15 5-14 8-15 13-11 12-10 15-1-2 3-7 8-12 5-5 2-3h2v-2h2l1-3 6-5 7-8 10-7 11-6 10-5 17-3h19l15 2 12 3 8 4 8 3 6 3v2l5 2 10 7 9 11 8 10 5 10 6 19 5 25 2 20 1 20 1 43v65l-1 92v35l1 19 3 5 4 2 60 1h60l25-1 7-1v-2h2l1-60 1-84v-66l-1-67-2-42-3-35-5-29-4-18v-9l-4-14-5-13-5-10-2-8-4-7-1-10v-3l4-1-2-9 2-4 6-4-1-4 12 2 4 2 13-1 1 2 8 1 1-3 15 2 3 2 5-1h4v-2l5-1v2l4-2 1-5 7-3 6-4h3l1-2 6-3 9-3 6-4h4v-2h2l1-3 3-1 3 3 7-6 5-4 5-8h7l7-17 1-2 3-1 4-16 3-8h2l1-7 3-18 1-12 2-6 3-24 3-32 1-26 2-20 1-28 2-28 1-19 3-21 3-14 3-7 4-7z" fill="#198BD5"/>
<path transform="translate(195,524)" d="m0 0 4 2 3 5v3h2l3 9 2 4 4 1 6 7v2l5 1 4 4v2l4 2 11 7 3 2v2l6 1 2 3 10 3 5 4 6 3 2 6v5l10 3 3 2h7l1 2h7l1 1h5l4-1 5 4 6 3 2 5h2v4l12 1 9 2h2v-2l9-2 5-1 4-3 3 3-1 7h2l1 10h2l5 6 2 12 2 1v2h2l1 11h2l1 3v110l1 5-1 68-1 12h-1l-1-52-1-9-3 9-1 8-4 2-2-6-1-1v-5l-4-2-1-5h-4l-5 1-1 5 2 1v3l-8 7-8 3h-3v2h-5l-2-3-5 3-8 3-6-2-5-1-2-4h-13l-3 1-2-1v-2l-6-2-6-1-5-4-8-3h-5l-2 1-3-3-5-1-3 1-5-3-1-3h-6l-3-2v-2l-2-1v-4l-6-3-2-7h-13l-7-6-7-12-3-7-3-1v-212z" fill="#28B3EF"/>
<path transform="translate(572,492)" d="m0 0 3 1 2 15 1 12 1 8h2l3 8 4 9 2 5 3 12 3 24 4 26 4 21 8 26 3 8 2 5 3 3 7 8 6 11h2l8 17 3 9 3 11 3 4 4 36v4h2l1 3 1 12h1v151h-1v-58h-2l1 5-1 13v12l-1 21v7l-1 2-1 22v13l-2 6v12l-1 6v11l-2 7-3 1-1-6-4-11-2-10-2-5-3-14-2-3-3 1-1 10-2 1-9-3-1-9-3-1-3-13v-6l-3-13-2-18-4-30-2-23-2-14-1-17-2-16-2-21-2-11-2-13-3-21-2-9v-8l-2-12v-6l-2-8-3-3-3-6v-3h-3l-2-12-1-7-1 6-1 230h-1l-2-274-1-15-7-2-98-2-6-1-1-2-3-1-4-6 1-3-5-5-4-5v-2h-2v-2h-2v-2h-3l-5-9-7-14-4-9-3-9-3-20-1-7 5 5 9 8 15 9 8 3v2l11 3 17 4h25l10-2 5-2 10-2v-2l11-6 10-8 6-5 4-5 5-9 5-8 5-9 2-5z" fill="#198BD5"/>
<path transform="translate(1384,319)" d="m0 0 3 1 1 9-6 4-3 6-3 7-3 14-3 21-1 23-2 28-1 25-2 19-1 26-2 22-2 21-3 16-1 5-3 23-3 12h-2l-1 6-4 12-2 7h-3l-3 9-4 10-2 1h-6l-6 9-4 3h-2l-2 4h-2l-1 2-4-3-3 3h-2v2l-7 3-7 4-9 3-14 8-5 2-1 5-4 1v-2l-5 1v2l-10 2-4-2-13-2-1 2-6 1v-2l-5-1-11 1-5-2-11-3 2 5-7 4-1 3 2 10h-5l2 13 5 9 2 8 7 16 5 14 1 8-3-4-6-18-9-20-6-12-5-9-4-4-3-5v-4l-3-1-7-10-15-16-14-13-6-4v-2l-5-1-18-10v-2l-5-1-4-2-8-2-17-5-9-2-6-3-12-2-1-1-10-1-2-3h8v-2l3-1 36-3 9 1 6-2 9-2 2 1v2h8v-3h2v2h3l1-2 13 1v-2l12 2 3 1-1-3h17l4-1 6 1 2-1 5 2v-5l9-2 11-1 2 1 9 1 6 3v-2l9-1v-2l6-2v-2h3l1-5 6 4v2h5l5 1v-3l6 1-1-9 8-1h3l2 1 5-7h9v-2l10-2 2-2 7-2 6-6 5-2v-2h2l1-2 6 1 3 3 7-10 2-1 1-3h2l3-10 2-3h2l1-6h2l1-6 5-11 2-5 1-4 2-2 4-13 2-14 2-10 1-16 3-19 4-21 2-26 2-24 4-22 5-13h2l2-4z" fill="#20A5E9"/>
<path transform="translate(476,386)" d="m0 0h16l23 4 9 4 6 2v2h3v2l6 2v2l4 1 5 5 8 9 4 7 7 14 4 16 1 21-2 14-4 14-6 10-4 7-6 9-6 7-16 12-6 3h-2v2l-20 6-5 1h-25l-17-4-11-4v-2l-5-1-12-6-13-10-7-8v-2h-2l-4-8-4-13-4-17v-14l3-16 6-17 6-12 8-12h2l2-4 9-8 11-6 8-4 16-6z" fill="#FAFBFB"/>
<path transform="translate(221,1325)" d="m0 0 11 1 9 5 10 7 16 10 12 7 13 5 9 3 13 3 29 3 30 2 27 1 71-1h28l38 1 11 1 19 1 44 2h69l30-1 25-2 20-1 36-1h72l70 2h63l22-1h27l25 1 43-1h117l38-3 20-3 14-3 9-3 20-10 11-8 9-6 6-2 4 1-1 4-11 13-8 8-17 12-16 8-14 5-20 5-21 3-39 2-158 1h-490l-224-1-22-2-18-4-24-10-16-10-14-11-12-11-7-8-8-11z" fill="#214173"/>
<path transform="translate(195,639)" d="m0 0 3 1 3 6 3 4 5 13 4 2 4 3 1 3 5 2 6 8v2l6 1 2 4 7 1 3 8 4 3v2l12 4 4 1 4 4 6 2 8 1 2 1v2l4 2 5 5 1 2 7 1 1 4h11l7-1 1 1 8-1 7-1 6 5h5l6-5 4-4h2l2-4 4-1 8 6v2l4 2v2l6-1v8l3 1 2 16 1 10 1 5v14l1 5-1 68-1 12h-1l-1-52-1-9-3 9-1 8-4 2-2-6-1-1v-5l-4-2-1-5h-4l-5 1-1 5 2 1v3l-8 7-8 3h-3v2h-5l-2-3-5 3-8 3-6-2-5-1-2-4h-13l-3 1-2-1v-2l-6-2-6-1-5-4-8-3h-5l-2 1-3-3-5-1-3 1-5-3-1-3h-6l-3-2v-2l-2-1v-4l-6-3-2-7h-13l-7-6-7-12-3-7-3-1v-100z" fill="#20A5E9"/>
<path transform="translate(1161,713)" d="m0 0 3 3 8 14 11 25 7 20 3 17 5 25 3 22 3 42 1 28 1 68v66l-1 96-1 38-1 7h-2v2l-7 2-25 1h-73l-47-1-6-4-2-4-1-19v-35l1-92v-65l-1-43-2-30-3-22-5-20-6-17-7-10-9-11-3-3v-2l-5-2-8-6-2-1v-2l-6-2-15-6-8-3-9-2-11-1h-19l-17 3-16 8-9 6-8 6-6 7h-2l-1 3-3 3h-2v2h-2l-2 4h-2l-2 4-8 12-3 7-3 9h-2l-1 39-2 267-2 18-2 3-3 1-14 1-29 1h-92l-21-2-3-3-3-7-1-7v-233h1l1 132 1 57 1 34 2 12 5 10 3 1 23 2h99l22-1 6-1 1-5v-224l1-27v-39l-1-20-1-10-1-5 1-9 7-14 11-14 6-9 10-13 12-11 18-11 20-8 11-3 10-2h23l23 5 12 5 11 6 3 3v2l4 2 10 12 5 12 4 7v3h2l5 16 4 14 4 21 4 53 1 16v233l2 9 3 4 4 1h20l39-2h41l18-3 9-4h2l3-19 1-20 1-16v-13l1-10v-19l1-10v-26l1-14v-25l1-23v-82l-1-25-1-15-1-23-1-19-5-38-8-29-6-18-8-16z" fill="#C5CBD3"/>
<path transform="translate(573,462)" d="m0 0 4 2 8 16 5 11 9 22 9 15 7 13 2 1 2 8 6 11 3 6 3 3v2h2v2l4 2 5 5 12 11 7 5 4 6 1 9 3 5 4 4-2 2h-3l-1 3-6 4-2 8 1 121v44h-1l-1-28h-2l-2-15-2-19-4-10-4-16-8-16-1-3-2 1-7-14-1-3-4-2-2-5-3-1-4-9-1-4-6-20-4-15-2-12-4-27-3-23-2-9-3-8-5-12-1-5h-2l-3-16-1-15-1-4-2-1-2 5-3 2 3-12 2-4z" fill="#28B3EF"/>
<path transform="translate(221,1325)" d="m0 0 11 1 9 5 10 7 16 10 12 7 13 5 9 3 13 3 29 3 30 2 27 1 71-1h28l38 1 11 1 19 1 44 2h69l30-1 25-2 20-1 36-1h72l70 2h63l22-1h27l25 1 43-1h117l38-3 20-3 14-3 9-3 20-10 11-8 9-6 6-2 4 1-1 4-11 13-8 8-17 12-14 7-11-1-49 2h-181l-69 1h-31l-19 1h-88l-50-1h-164l-7 1-35-1h-15l-13-1h-9l-11-1-83-1-28-1h-25l-52-1-32-3-27-3-19-4-14-5-12-5h-8l-9 3-13-12-7-8-8-11z" fill="#194784"/>
<path transform="translate(368,202)" d="m0 0h829v1l-470 1-10 2-21 2-31 1-47 1-27 1h-97l-61 1-54 3-29 1-21 2-12 3-13 6-22 9-11 7-13 10-11 9-7 8h-2l-2 5-10 13-9 12-14 15h-2l-1 2 2-9 7-15 10-17 10-14 11-12 2-3h2l2-4 8-7 14-11 15-9 14-7 12-4 11-2z" fill="#9AF0FC"/>
<path transform="translate(573,481)" d="m0 0h2v2h2l3 7 4 15 2 9 4 13 5 10 7 22 2 11 5 23 6 17 6 13v2l4 2v2h2l4 6 5 5 3 2 2 7 1 3 4 2 2 2 1 9 3 7 1 1 2 18v13l2 14h1l1 6 1 35v44h-1l-1-28h-2l-2-15-2-19-4-10-4-16-8-16-1-3-2 1-7-14-1-3-4-2-2-5-3-1-4-9-1-4-6-20-4-15-2-12-4-27-3-23-2-9-3-8-5-12-1-5h-2l-3-16-1-15-1-4-2-1-2 5-3 2 3-12z" fill="#20A5E9"/>
<path transform="translate(1190,777)" d="m0 0 2 4 5 15 7 36 3 27 2 26 1 37v63l-1 117-1 71-2 13-4 3-24 2h-118l-12-1-6-3-2-3-1-5-1-23 1-80v-88l-1-67-2-25-2-16-6-21-8-18-11-16-7-7-15-10-15-7-17-4h-32l-19 3-15 5-14 8-15 13-11 12-10 15-1-2 3-7 8-12 5-5 2-3h2v-2h2l1-3 6-5 7-8 10-7 11-6 10-5 17-3h19l15 2 12 3 8 4 8 3 6 3v2l5 2 10 7 9 11 8 10 5 10 6 19 5 25 2 20 1 20 1 43v65l-1 92v35l1 19 3 5 4 2 60 1h60l25-1 7-1v-2h2l1-60 1-84v-66l-1-67-2-42-3-35-5-29-4-18z" fill="#6B96BD"/>
<path transform="translate(393,503)" d="m0 0 2 2 2 4 2 3 3 9 1 4h2l4 20 1 9 5 13 8 18 3 4 2 6h3v2h2v2h2l7 10 3 3-1 3 3 3v2l4 1v2l61 1v1h-115l-8 8-4 10h-3l-1-3 1-1v-7l3-15-6-3-1-6h2l-2-4 8-15 2-5h-2l-1-3 4-13-1-1v-8l1-1v-14l2-14v-19z" fill="#28B3EE"/>
<path transform="translate(554,1188)" d="m0 0h9v2h-2l-1 3h-2l-2 4-10 4-1 2-7 3-6 4-7 1-10-1v2l-16-1h-9v-2l-3 1h-14l-5-2-7-1-5-2-17-4-10-4-5-3-7-2v-2l98-1z" fill="#184784"/>
<path transform="translate(1161,713)" d="m0 0 3 3 8 14 11 25 7 20 3 17 5 25 3 22 3 42 1 28 1 68v66l-1 96-1 38-1 7h-2v2l-7 2-25 1h-73l-15-1v-1h68l31-1 13-1 5-3 2-11 1-87v-104l-1-68-2-38-2-25-5-37-4-22-2-10-6-21v-2h-2l-5-18-5-12-6-12z" fill="#9DC1D9"/>
<path transform="translate(567,780)" d="m0 0h1l2 66v103l-1 133-1 60-1 6v29l-2 6h-1v-47l1-219 1-96z" fill="#234679"/>
<path transform="translate(398,516)" d="m0 0 3 3 2 6h2l4 20 1 9 5 13 8 18 3 4 2 6h3v2h2v2h2l7 10 3 3-1 3 3 3v2l4 1v2l61 1v1h-58l-32-2-2-4-2-1 1-9h-2l-3-7-5-21-4-16-3-13v-20l-2-9-2-4z" fill="#20A5E8"/>
<path transform="translate(557,523)" d="m0 0 1 2-3 10-3 5h-2l-2 4-7 8-7 5h-2v2l-7 5-15 6-13 3-11 1-17-3-13-4v-2l-5-1-10-4-10-7-7-6 2-1 6 3 10 3v2l11 3 17 4h25l10-2 5-2 10-2v-2l11-6 10-8 6-5 4-5 2-4z" fill="#1763AF"/>
<path transform="translate(395,649)" d="m0 0h1v419l1 73 1 29 2 13 10 3 20 1 124 1v1h-136l-16-1-5-2-2-2-1-4-1-18-1-72v-79l1-102v-121l1-93z" fill="#9DC1D8"/>
<path transform="translate(923,796)" d="m0 0h32l17 4 17 8 14 10 8 8 3 5v3l-4-2-7-7-3-2v-2l-5-2-9-4-16-6-17-3-26-2-20 2-16 4-17 9-13 11-7 7-8 11-9 13-2 3 1-7 6-10 8-11 12-13 13-11 16-9 17-5z" fill="#1E3F71"/>
<path transform="translate(929,780)" d="m0 0 23 1 10 2 5 2 9 3 13 7 5 4 5 3v2l4 2 11 11 9 13 6 12 4 13 4 17v8h-1l-5-23-5-15-5-10-13-16-3-3v-2l-5-2-8-6-2-1v-2l-6-2-15-6-8-3-9-2-11-1h-19l-17 3-16 8-9 6-8 6-6 7h-2l-1 3-3 3h-2v2h-2l-2 4h-2l-2 4-8 12-3 7-3 9h-1v-8l6-13 2-5 2-3h2l2-5 7-8 6-8 10-8 10-7 10-6 12-5 15-3z" fill="#9CC0D8"/>
<path transform="translate(802,1190)" d="m0 0h23l-1 2-11 3-20 4-15 2h-23l-1 1h-7l-6 2h-6l-7 2-9-2-8-4-16-5-7-1v-1l69-1z" fill="#194682"/>
<path transform="translate(832,899)" d="m0 0h1v261l-2 23-3 5-2 1-24 2-26 1h-99l-12-2-5-3-1-13v-26l1-112h1l1 135 2 11 2 5 23 2h92l29-1 14-1 3-1 2-8 1-12z" fill="#6B96BD"/>
<path transform="translate(661,938)" d="m0 0h1l1 132 1 57 1 34 2 12 5 10 3 1 23 2h119l-1 2-6 1-29 1h-92l-21-2-3-3-3-7-1-7z" fill="#C7CCD3"/>
<path transform="translate(397,624)" d="m0 0h57l101 1v1l-157 1-2 22-1 46-1 93-2-4v-109l-3-3v-11h-2v-2l-3-1-2-12-1-4 3 1 5-11 3-3z" fill="#4DC4F1"/>
<path transform="translate(393,790)" d="m0 0h1v119l-1 115v66l1 72 1 18 2 5 5 2 16 1 97 1v1h-99l-17-1-5-2-2-7-1-16v-167l1-146z" fill="#6B96BD"/>
<path transform="translate(1183,1191)" d="m0 0h10l-2 2-17 4-24 3-12-1-15 1h-29l-7-2-7-3-9-2v-1z" fill="#194784"/>
<path transform="translate(264,228)" d="m0 0 1 2-9 14-10 13-11 16-10 13-7 8-11 8-1-2 8-16 8-12 8-11 9-10 3-4h2l2-4 8-7z" fill="#FBFCFC"/>
<path transform="translate(394,921)" d="m0 0h1l1 147 1 73 1 29 2 13 10 3 20 1 124 1v1h-136l-16-1-5-4-2-9-1-69z" fill="#BDC8D3"/>
<path transform="translate(922,799)" d="m0 0h23l14 2 16 5 17 8 10 7 10 9 2 1v3l-4-2-7-7-3-2v-2l-5-2-9-4-16-6-17-3-26-2-20 2-16 4-10 5-2-1 14-8 15-5z" fill="#194784"/>
<path transform="translate(661,938)" d="m0 0h1l1 221 1 14 3 10 4 3 8 1 27 1h104v1l-29 1h-92l-21-2-3-3-3-7-1-7z" fill="#9DC1D8"/>
<path transform="translate(1040,906)" d="m0 0h1l2 38 1 48-1 91v92l3 9 4 2 20 1v1h-21l-6-4-2-4-1-19v-35l1-92v-65l-1-43z" fill="#9DC1D9"/>
<path transform="translate(515,1189)" d="m0 0h44v1l-5 1-22 2-13 2h-27l-3-1h-47l-14-2v-1l56-1z" fill="#1E4073"/>
<path transform="translate(825,626)" d="m0 0 4 1 4 5 1 4 1 14 1 1 1 12 1 5 5 1 6-1 5 3 5 2-4 4-8 6h-2v2l-7 4h-3l-1-7-2-40-1-9-4-5z" fill="#37C4F8"/>
<path transform="translate(567,780)" d="m0 0h1l2 66v103h-1l-1-84-1-18h-1v-26z" fill="#194784"/>
<path transform="translate(732,624)" d="m0 0h87l4 2h-35l-53 1-33 1h-17l3-2z" fill="#75E4FD"/>
<path transform="translate(1148,692)" d="m0 0 3 1 3 5 6 8v2h2v3h2l7 14 4 4 3 10 7 16 5 14 1 8-3-4-6-18-9-20-6-12-5-9-4-4-3-5v-4l-3-1-4-6z" fill="#36C3F7"/>
<path transform="translate(441,553)" d="m0 0 19 6 10 2h25l10-2 5-2 10-3 3 1-10 5-15 4-8 1h-13l-16-3-18-6-2-1z" fill="#1D4075"/>
<path transform="translate(980,623)" d="m0 0h29l24 2 7 2v1l-9-1-12-1h-35l-17 2h-5l1-2z" fill="#6FE0FC"/>
<path transform="translate(825,626)" d="m0 0 4 1 4 5 1 4 2 38 1 6 3 3v2l5-1-5 4-5 1-1-7-2-40-1-9-4-5z" fill="#71E2FD"/>
<path transform="translate(1176,734)" d="m0 0 4 5 10 23 4 17 2 9v5l-2-3-3-9-3-15-6-16-6-13z" fill="#22A8EA"/>
<path transform="translate(861,827)" d="m0 0 2 1-9 9-8 11-9 13-2 3 1-7 6-10 7-9z" fill="#1B437B"/>
<path transform="translate(442,552)" d="m0 0 5 1 13 4 19 3h10l16-1v1l-10 2h-25l-17-4-11-4z" fill="#99B2C9"/>
<path transform="translate(399,514)" d="m0 0 4 5 6 9 11 9v2l4 2 14 8 4 3-5-1-12-6-13-10-7-8v-2h-2l-4-8z" fill="#B8C6D2"/>
<path transform="translate(397,624)" d="m0 0h57v1l-51 1-5 1-2 22h-1v-23z" fill="#45CDF9"/>
<path transform="translate(567,780)" d="m0 0h1l1 27v22l-3-1z" fill="#184784"/>
<path transform="translate(1024,836)" d="m0 0 3 1 6 18 4 17v8h-1l-5-23-5-15z" fill="#9DC1D9"/>
<path transform="translate(441,553)" d="m0 0 19 6 10 2 1 3-17-4-13-5z" fill="#1D4379"/>
<path transform="translate(1148,692)" d="m0 0 3 1 3 5 6 8v5l-4-4-1-6-3-1-4-6z" fill="#68DDFC"/>
<path transform="translate(1160,708)" d="m0 0h2v3h2l6 12-1 4-7-13-2-1z" fill="#48CFFA"/>
<path transform="translate(827,1179)" d="m0 0 1 4-1 4-3 1h-8l3-3 6-1z" fill="#BBC9D4"/>
<path transform="translate(1176,734)" d="m0 0 4 5 6 14v5l-2-3-7-16z" fill="#22AAEB"/>
<path transform="translate(520,554)" d="m0 0 3 1-10 5-8 2 1-4 11-3z" fill="#274B7E"/>
<path transform="translate(566,828)" d="m0 0 3 1v7l-1 1-1 10h-1z" fill="#1A457F"/>
<path transform="translate(1125,668)" d="m0 0 5 2 7 8 3 2-1 3-14-14z" fill="#70E1FC"/>
<path transform="translate(1110,656)" d="m0 0 4 1 11 9v2l-4-2-8-7z" fill="#5CD8FB"/>
<path transform="translate(843,849)" d="m0 0v3l-8 12 1-7 2-4h3z" fill="#194885"/>
</svg>
